<svg xmlns="http://www.w3.org/2000/svg" viewBox="0 0 1200 675" font-family="'Trebuchet MS','Segoe UI',Verdana,sans-serif">
  <defs>
    <linearGradient id="bg" x1="0" y1="0" x2="1" y2="1"><stop offset="0" stop-color="#1aa3b8"/><stop offset="1" stop-color="#0e7d8f"/></linearGradient>
    <filter id="sh" x="-20%" y="-20%" width="140%" height="140%"><feDropShadow dx="0" dy="6" stdDeviation="10" flood-color="#000" flood-opacity="0.18"/></filter>
  </defs>
  <rect width="1200" height="675" fill="url(#bg)"/>
  <rect width="1200" height="675" fill="#000" opacity="0.04"/>
  <g fill="#ffffff" opacity="0.12"><circle cx="90" cy="90" r="7"/><circle cx="130" cy="90" r="7"/><circle cx="170" cy="90" r="7"/></g>
  <rect x="80" y="120" rx="26" ry="26" width="210" height="52" fill="#102a54"/>
  <text x="185.0" y="155" fill="#ffffff" font-size="26" font-weight="bold" letter-spacing="3" text-anchor="middle">GRADES 6–8</text>
  <circle cx="980" cy="300" r="150" fill="#ffffff" filter="url(#sh)"/>
  <g transform="translate(980,300)" fill="none" stroke="#1aa3b8" stroke-width="11" stroke-linecap="round"><circle cx="0" cy="28" r="9" fill="#1aa3b8" stroke="none"/><path d="M -22 14 A 30 30 0 0 1 22 14"/><path d="M -40 -4 A 56 56 0 0 1 40 -4"/><path d="M -58 -22 A 82 82 0 0 1 58 -22"/></g>
  <text x="80" y="320" fill="#ffffff" font-size="76" font-weight="bold">Signal Check:</text>
  <text x="80" y="400" fill="#ffffff" font-size="76" font-weight="bold">The Viral Claim</text>
  <rect x="80" y="450" rx="22" ry="22" width="256" height="46" fill="#ffffff" opacity="0.92"/>
  <text x="208.0" y="481" fill="#1aa3b8" font-size="26" font-weight="bold" text-anchor="middle">Media literacy</text>
  <g transform="translate(80,540)">
    <text x="0" y="24" fill="#ffffff" font-size="28" font-weight="bold" opacity="0.92">4 locks</text>
    <g fill="none" stroke="#ffffff" stroke-width="6" opacity="0.92">
      <g transform="translate(150,0)"><rect x="0" y="10" width="26" height="20" rx="4" fill="#ffffff" stroke="none"/><path d="M 5 10 V 4 a 8 8 0 0 1 16 0 V 10"/></g>
      <g transform="translate(195,0)"><rect x="0" y="10" width="26" height="20" rx="4" fill="#ffffff" stroke="none"/><path d="M 5 10 V 4 a 8 8 0 0 1 16 0 V 10"/></g>
      <g transform="translate(240,0)"><rect x="0" y="10" width="26" height="20" rx="4" fill="#ffffff" stroke="none"/><path d="M 5 10 V 4 a 8 8 0 0 1 16 0 V 10"/></g>
      <g transform="translate(285,0)"><rect x="0" y="10" width="26" height="20" rx="4" fill="#ffffff" stroke="none"/><path d="M 5 10 V 4 a 8 8 0 0 1 16 0 V 10"/></g>
    </g>
  </g>
  <text x="1120" y="630" fill="#ffffff" font-size="24" font-weight="bold" text-anchor="end" opacity="0.85">Critical Thinking Breakouts</text>
</svg>